<svg xmlns="http://www.w3.org/2000/svg" xmlns:xlink="http://www.w3.org/1999/xlink" version="1.1" width="256" height="256" viewBox="0 0 256 256" xml:space="preserve">

<defs>
</defs>
<g style="stroke: none; stroke-width: 0; stroke-dasharray: none; stroke-linecap: butt; stroke-linejoin: miter; stroke-miterlimit: 10; fill: none; fill-rule: nonzero; opacity: 1;" transform="translate(1.4065934065934016 1.4065934065934016) scale(2.81 2.81)" >
	<path d="M 45 66.739 c -11.987 0 -21.74 -9.752 -21.74 -21.739 S 33.013 23.26 45 23.26 S 66.739 33.013 66.739 45 S 56.987 66.739 45 66.739 z M 45 29.26 c -8.679 0 -15.74 7.061 -15.74 15.74 S 36.321 60.739 45 60.739 S 60.739 53.679 60.739 45 S 53.679 29.26 45 29.26 z" style="stroke: none; stroke-width: 1; stroke-dasharray: none; stroke-linecap: butt; stroke-linejoin: miter; stroke-miterlimit: 10; fill: rgb(0,0,0); fill-rule: nonzero; opacity: 1;" transform=" matrix(1 0 0 1 0 0) " stroke-linecap="round" />
	<path d="M 45 66.763 c -14.477 0 -28.953 -6.054 -43.328 -18.16 C 0.609 47.708 0 46.395 0 45 s 0.609 -2.708 1.672 -3.603 c 28.751 -24.214 57.906 -24.214 86.656 0 l 0 0 C 89.391 42.293 90 43.605 90 45 s -0.609 2.707 -1.672 3.602 C 73.953 60.709 59.477 66.763 45 66.763 z M 6.726 45 c 25.74 21.046 50.809 21.048 76.547 0 C 57.536 23.954 32.467 23.952 6.726 45 z M 84.459 45.984 c 0.001 0.001 0.003 0.002 0.004 0.003 C 84.461 45.986 84.461 45.985 84.459 45.984 z" style="stroke: none; stroke-width: 1; stroke-dasharray: none; stroke-linecap: butt; stroke-linejoin: miter; stroke-miterlimit: 10; fill: rgb(0,0,0); fill-rule: nonzero; opacity: 1;" transform=" matrix(1 0 0 1 0 0) " stroke-linecap="round" />
	<circle cx="45" cy="45" r="7" style="stroke: none; stroke-width: 1; stroke-dasharray: none; stroke-linecap: butt; stroke-linejoin: miter; stroke-miterlimit: 10; fill: rgb(0,0,0); fill-rule: nonzero; opacity: 1;" transform="  matrix(1 0 0 1 0 0) "/>
</g>
</svg>