<svg class="svg-icon" style="width: 1em; height: 1em;vertical-align: middle;fill: currentColor;overflow: hidden;" viewBox="0 0 1024 1024" version="1.1" xmlns="http://www.w3.org/2000/svg"><path d="M904.533333 494.933333h-307.2c-10.24 0-17.066667-6.826667-17.066666-17.066666s6.826667-17.066667 17.066666-17.066667h307.2c10.24 0 17.066667 6.826667 17.066667 17.066667s-6.826667 17.066667-17.066667 17.066666zM904.533333 597.333333h-307.2c-10.24 0-17.066667-6.826667-17.066666-17.066666s6.826667-17.066667 17.066666-17.066667h307.2c10.24 0 17.066667 6.826667 17.066667 17.066667s-6.826667 17.066667-17.066667 17.066666zM904.533333 699.733333h-307.2c-10.24 0-17.066667-6.826667-17.066666-17.066666s6.826667-17.066667 17.066666-17.066667h307.2c10.24 0 17.066667 6.826667 17.066667 17.066667s-6.826667 17.066667-17.066667 17.066666z" fill="" /><path d="M921.6 904.533333H102.4c-58.026667 0-102.4-44.373333-102.4-102.4v-477.866666c0-58.026667 44.373333-102.4 102.4-102.4h324.266667c10.24 0 17.066667 6.826667 17.066666 17.066666s-6.826667 17.066667-17.066666 17.066667H102.4c-37.546667 0-68.266667 30.72-68.266667 68.266667v477.866666c0 37.546667 30.72 68.266667 68.266667 68.266667h819.2c37.546667 0 68.266667-30.72 68.266667-68.266667v-477.866666c0-37.546667-30.72-68.266667-68.266667-68.266667h-324.266667c-10.24 0-17.066667-6.826667-17.066666-17.066667s6.826667-17.066667 17.066666-17.066666H921.6c58.026667 0 102.4 44.373333 102.4 102.4v477.866666c0 58.026667-44.373333 102.4-102.4 102.4z" fill="" /><path d="M597.333333 324.266667h-170.666666c-10.24 0-17.066667-6.826667-17.066667-17.066667V136.533333c0-10.24 6.826667-17.066667 17.066667-17.066666h170.666666c10.24 0 17.066667 6.826667 17.066667 17.066666v170.666667c0 10.24-6.826667 17.066667-17.066667 17.066667z m-153.6-34.133334h136.533334v-136.533333h-136.533334v136.533333zM307.2 665.6c-58.026667 0-102.4-44.373333-102.4-102.4s44.373333-102.4 102.4-102.4 102.4 44.373333 102.4 102.4-44.373333 102.4-102.4 102.4z m0-170.666667c-37.546667 0-68.266667 30.72-68.266667 68.266667s30.72 68.266667 68.266667 68.266667 68.266667-30.72 68.266667-68.266667-30.72-68.266667-68.266667-68.266667z" fill="" /><path d="M471.04 764.586667s0-3.413333 0 0c-6.826667 0-13.653333-3.413333-13.653333-10.24-30.72-54.613333-88.746667-88.746667-150.186667-88.746667s-119.466667 34.133333-150.186667 88.746667c-3.413333 3.413333-6.826667 6.826667-13.653333 10.24-6.826667 0-10.24 0-13.653333-6.826667-40.96-44.373333-61.44-102.4-61.44-160.426667 0-133.12 105.813333-238.933333 238.933333-238.933333s238.933333 105.813333 238.933333 238.933333c0 58.026667-20.48 116.053333-61.44 160.426667-3.413333 3.413333-6.826667 6.826667-13.653333 6.826667zM307.2 631.466667c64.853333 0 126.293333 30.72 167.253333 85.333333 23.893333-34.133333 37.546667-75.093333 37.546667-119.466667 0-112.64-92.16-204.8-204.8-204.8s-204.8 92.16-204.8 204.8c0 44.373333 13.653333 85.333333 37.546667 119.466667 40.96-54.613333 102.4-85.333333 167.253333-85.333333z" fill="" /><path d="M307.2 836.266667c-133.12 0-238.933333-105.813333-238.933333-238.933334s105.813333-238.933333 238.933333-238.933333 238.933333 105.813333 238.933333 238.933333-105.813333 238.933333-238.933333 238.933334z m0-443.733334c-112.64 0-204.8 92.16-204.8 204.8s92.16 204.8 204.8 204.8 204.8-92.16 204.8-204.8-92.16-204.8-204.8-204.8z" fill="" /></svg>